<svg width="138" height="101" viewBox="0 0 138 101" fill="none" xmlns="http://www.w3.org/2000/svg">
<line x1="99" y1="34.5" x2="135" y2="34.5" stroke="black" stroke-width="3"/>
<line x1="3" y1="34.5" x2="40" y2="34.5" stroke="black" stroke-width="3"/>
<path opacity="0.6" d="M64.544 13.196C62.9667 13.196 61.7627 12.7573 60.932 11.88C60.1107 11.0027 59.7 9.75667 59.7 8.142C59.7 7.33933 59.826 6.62533 60.078 6C60.33 5.36533 60.6753 4.83333 61.114 4.404C61.5527 3.96533 62.0753 3.634 62.682 3.41C63.2887 3.186 63.9467 3.074 64.656 3.074C65.0667 3.074 65.44 3.10667 65.776 3.172C66.112 3.228 66.406 3.298 66.658 3.382C66.91 3.45667 67.12 3.536 67.288 3.62C67.456 3.704 67.5773 3.76933 67.652 3.816L67.022 5.58C66.7233 5.42133 66.3733 5.286 65.972 5.174C65.58 5.062 65.132 5.006 64.628 5.006C64.292 5.006 63.9607 5.062 63.634 5.174C63.3167 5.286 63.032 5.468 62.78 5.72C62.5373 5.96267 62.3413 6.28 62.192 6.672C62.0427 7.064 61.968 7.54 61.968 8.1C61.968 8.548 62.0147 8.968 62.108 9.36C62.2107 9.74267 62.3693 10.074 62.584 10.354C62.808 10.634 63.0973 10.858 63.452 11.026C63.8067 11.1847 64.236 11.264 64.74 11.264C65.0573 11.264 65.342 11.2453 65.594 11.208C65.846 11.1707 66.07 11.1287 66.266 11.082C66.462 11.026 66.6347 10.9653 66.784 10.9C66.9333 10.8347 67.0687 10.774 67.19 10.718L67.792 12.468C67.484 12.6547 67.05 12.8227 66.49 12.972C65.93 13.1213 65.2813 13.196 64.544 13.196ZM69.0581 5.314C69.3288 5.202 69.6088 5.076 69.8981 4.936C70.1968 4.78667 70.4861 4.628 70.7661 4.46C71.0461 4.28267 71.3121 4.10067 71.5641 3.914C71.8255 3.718 72.0588 3.51267 72.2641 3.298H73.7201V13H71.6341V6.014C71.3541 6.20067 71.0415 6.37333 70.6961 6.532C70.3508 6.68133 70.0148 6.812 69.6881 6.924L69.0581 5.314Z" fill="#5B5B5B"/>
<path opacity="0.6" d="M64.544 98.196C62.9667 98.196 61.7627 97.7573 60.932 96.88C60.1107 96.0027 59.7 94.7567 59.7 93.142C59.7 92.3393 59.826 91.6253 60.078 91C60.33 90.3653 60.6753 89.8333 61.114 89.404C61.5527 88.9653 62.0753 88.634 62.682 88.41C63.2887 88.186 63.9467 88.074 64.656 88.074C65.0667 88.074 65.44 88.1067 65.776 88.172C66.112 88.228 66.406 88.298 66.658 88.382C66.91 88.4567 67.12 88.536 67.288 88.62C67.456 88.704 67.5773 88.7693 67.652 88.816L67.022 90.58C66.7233 90.4213 66.3733 90.286 65.972 90.174C65.58 90.062 65.132 90.006 64.628 90.006C64.292 90.006 63.9607 90.062 63.634 90.174C63.3167 90.286 63.032 90.468 62.78 90.72C62.5373 90.9627 62.3413 91.28 62.192 91.672C62.0427 92.064 61.968 92.54 61.968 93.1C61.968 93.548 62.0147 93.968 62.108 94.36C62.2107 94.7427 62.3693 95.074 62.584 95.354C62.808 95.634 63.0973 95.858 63.452 96.026C63.8067 96.1847 64.236 96.264 64.74 96.264C65.0573 96.264 65.342 96.2453 65.594 96.208C65.846 96.1707 66.07 96.1287 66.266 96.082C66.462 96.026 66.6347 95.9653 66.784 95.9C66.9333 95.8347 67.0687 95.774 67.19 95.718L67.792 97.468C67.484 97.6547 67.05 97.8227 66.49 97.972C65.93 98.1213 65.2813 98.196 64.544 98.196ZM75.0221 90.846C75.0221 91.2007 74.9521 91.5413 74.8121 91.868C74.6721 92.1947 74.4901 92.512 74.2661 92.82C74.0421 93.1187 73.7901 93.408 73.5101 93.688C73.2301 93.968 72.9548 94.234 72.6841 94.486C72.5441 94.6167 72.3901 94.766 72.2221 94.934C72.0635 95.0927 71.9095 95.256 71.7601 95.424C71.6108 95.592 71.4755 95.7507 71.3541 95.9C71.2421 96.04 71.1721 96.1567 71.1441 96.25H75.3161V98H68.8481C68.8295 97.8973 68.8201 97.7667 68.8201 97.608C68.8201 97.4493 68.8201 97.3373 68.8201 97.272C68.8201 96.824 68.8901 96.4133 69.0301 96.04C69.1795 95.6667 69.3708 95.3213 69.6041 95.004C69.8375 94.6773 70.0988 94.374 70.3881 94.094C70.6868 93.814 70.9808 93.534 71.2701 93.254C71.4941 93.0393 71.7041 92.8387 71.9001 92.652C72.0961 92.456 72.2688 92.2693 72.4181 92.092C72.5675 91.9053 72.6841 91.7233 72.7681 91.546C72.8521 91.3593 72.8941 91.1727 72.8941 90.986C72.8941 90.5753 72.7775 90.286 72.5441 90.118C72.3108 89.95 72.0215 89.866 71.6761 89.866C71.4241 89.866 71.1861 89.908 70.9621 89.992C70.7475 90.0667 70.5468 90.16 70.3601 90.272C70.1828 90.3747 70.0288 90.482 69.8981 90.594C69.7675 90.6967 69.6695 90.7807 69.6041 90.846L68.5681 89.39C68.9788 89.0073 69.4548 88.6947 69.9961 88.452C70.5468 88.2 71.1348 88.074 71.7601 88.074C72.3295 88.074 72.8195 88.1393 73.2301 88.27C73.6408 88.4007 73.9768 88.5873 74.2381 88.83C74.5088 89.0633 74.7048 89.3527 74.8261 89.698C74.9568 90.034 75.0221 90.4167 75.0221 90.846Z" fill="#5B5B5B"/>
<line x1="133.5" y1="93" x2="133.5" y2="33" stroke="black" stroke-width="3"/>
<line x1="4.5" y1="94.025" x2="4.5" y2="34.025" stroke="black" stroke-width="3"/>
<line x1="3" y1="69.5" x2="39" y2="69.5" stroke="black" stroke-width="3"/>
<line x1="99" y1="69.5" x2="135" y2="69.5" stroke="black" stroke-width="3"/>
<circle cx="4.5" cy="94.5" r="4.5" fill="black"/>
<circle cx="133.5" cy="94.5" r="4.5" fill="black"/>
<circle cx="4" cy="70" r="3" fill="black"/>
<circle cx="134" cy="70" r="3" fill="black"/>
<line x1="59.3526" y1="56.5" x2="59.3526" y2="83.5" stroke="black" stroke-width="3" stroke-linecap="round"/>
<line x1="35.5" y1="69.5" x2="59.5118" y2="69.5" stroke="black" stroke-width="3" stroke-linecap="round"/>
<line x1="75.4882" y1="56.5" x2="75.4882" y2="83.5" stroke="black" stroke-width="3" stroke-linecap="round"/>
<line x1="75.4882" y1="69.5" x2="99.5" y2="69.5" stroke="black" stroke-width="3" stroke-linecap="round"/>
<line x1="59.3526" y1="21.5" x2="59.3526" y2="48.5" stroke="black" stroke-width="3" stroke-linecap="round"/>
<line x1="35.5" y1="34.5" x2="59.5118" y2="34.5" stroke="black" stroke-width="3" stroke-linecap="round"/>
<line x1="75.4882" y1="21.5" x2="75.4882" y2="48.5" stroke="black" stroke-width="3" stroke-linecap="round"/>
<line x1="75.4882" y1="34.5" x2="99.5" y2="34.5" stroke="black" stroke-width="3" stroke-linecap="round"/>
</svg>
