<svg width="138" height="93" viewBox="0 0 138 93" fill="none" xmlns="http://www.w3.org/2000/svg">
<path d="M40 16.5074V39.5074H98V16.5074L40 16.5074Z" fill="#AFAFAF" stroke="black" stroke-width="2"/>
<path d="M99 28.5H135" stroke="black" stroke-width="3"/>
<path d="M3 28.5H40" stroke="black" stroke-width="3"/>
<path d="M40 51V74H98V51H40Z" fill="#AFAFAF" stroke="black" stroke-width="2"/>
<path opacity="0.6" d="M63.962 3.18597C65.418 3.18597 66.5333 3.4473 67.308 3.96997C68.0827 4.4833 68.47 5.28597 68.47 6.37797C68.47 7.0593 68.3113 7.61464 67.994 8.04397C67.686 8.46397 67.238 8.7953 66.65 9.03797C66.846 9.28064 67.0513 9.56064 67.266 9.87797C67.4807 10.186 67.6907 10.5127 67.896 10.858C68.1107 11.194 68.316 11.5487 68.512 11.922C68.708 12.286 68.89 12.6453 69.058 13H66.608C66.4307 12.6827 66.2487 12.3607 66.062 12.034C65.8847 11.7073 65.698 11.39 65.502 11.082C65.3153 10.774 65.1287 10.4847 64.942 10.214C64.7553 9.93397 64.5687 9.68197 64.382 9.45797H63.304V13H61.12V3.43797C61.596 3.34464 62.086 3.2793 62.59 3.24197C63.1033 3.20464 63.5607 3.18597 63.962 3.18597ZM64.088 5.04797C63.9293 5.04797 63.7847 5.05264 63.654 5.06197C63.5327 5.0713 63.416 5.08064 63.304 5.08997V7.72197H63.92C64.7413 7.72197 65.3293 7.6193 65.684 7.41397C66.0387 7.20864 66.216 6.85864 66.216 6.36397C66.216 5.88797 66.034 5.55197 65.67 5.35597C65.3153 5.15064 64.788 5.04797 64.088 5.04797ZM70.3179 5.31397C70.5886 5.20197 70.8686 5.07597 71.1579 4.93597C71.4566 4.78664 71.7459 4.62797 72.0259 4.45997C72.3059 4.28264 72.5719 4.10064 72.8239 3.91397C73.0852 3.71797 73.3186 3.51264 73.5239 3.29797H74.9799V13H72.8939V6.01397C72.6139 6.20064 72.3012 6.3733 71.9559 6.53197C71.6106 6.6813 71.2746 6.81197 70.9479 6.92397L70.3179 5.31397Z" fill="#5B5B5B"/>
<path opacity="0.6" d="M63.962 77.186C65.418 77.186 66.5333 77.4473 67.308 77.97C68.0827 78.4833 68.47 79.286 68.47 80.378C68.47 81.0593 68.3113 81.6147 67.994 82.044C67.686 82.464 67.238 82.7953 66.65 83.038C66.846 83.2807 67.0513 83.5607 67.266 83.878C67.4807 84.186 67.6907 84.5127 67.896 84.858C68.1107 85.194 68.316 85.5487 68.512 85.922C68.708 86.286 68.89 86.6453 69.058 87H66.608C66.4307 86.6827 66.2487 86.3607 66.062 86.034C65.8847 85.7073 65.698 85.39 65.502 85.082C65.3153 84.774 65.1287 84.4847 64.942 84.214C64.7553 83.934 64.5687 83.682 64.382 83.458H63.304V87H61.12V77.438C61.596 77.3447 62.086 77.2793 62.59 77.242C63.1033 77.2047 63.5607 77.186 63.962 77.186ZM64.088 79.048C63.9293 79.048 63.7847 79.0527 63.654 79.062C63.5327 79.0713 63.416 79.0807 63.304 79.09V81.722H63.92C64.7413 81.722 65.3293 81.6193 65.684 81.414C66.0387 81.2087 66.216 80.8587 66.216 80.364C66.216 79.888 66.034 79.552 65.67 79.356C65.3153 79.1507 64.788 79.048 64.088 79.048ZM76.2819 79.846C76.2819 80.2007 76.2119 80.5413 76.0719 80.868C75.9319 81.1947 75.7499 81.512 75.5259 81.82C75.3019 82.1187 75.0499 82.408 74.7699 82.688C74.4899 82.968 74.2146 83.234 73.9439 83.486C73.8039 83.6167 73.6499 83.766 73.4819 83.934C73.3232 84.0927 73.1692 84.256 73.0199 84.424C72.8706 84.592 72.7352 84.7507 72.6139 84.9C72.5019 85.04 72.4319 85.1567 72.4039 85.25H76.5759V87H70.1079C70.0892 86.8973 70.0799 86.7667 70.0799 86.608C70.0799 86.4493 70.0799 86.3373 70.0799 86.272C70.0799 85.824 70.1499 85.4133 70.2899 85.04C70.4392 84.6667 70.6306 84.3213 70.8639 84.004C71.0972 83.6773 71.3586 83.374 71.6479 83.094C71.9466 82.814 72.2406 82.534 72.5299 82.254C72.7539 82.0393 72.9639 81.8387 73.1599 81.652C73.3559 81.456 73.5286 81.2693 73.6779 81.092C73.8272 80.9053 73.9439 80.7233 74.0279 80.546C74.1119 80.3593 74.1539 80.1727 74.1539 79.986C74.1539 79.5753 74.0372 79.286 73.8039 79.118C73.5706 78.95 73.2812 78.866 72.9359 78.866C72.6839 78.866 72.4459 78.908 72.2219 78.992C72.0072 79.0667 71.8066 79.16 71.6199 79.272C71.4426 79.3747 71.2886 79.482 71.1579 79.594C71.0272 79.6967 70.9292 79.7807 70.8639 79.846L69.8279 78.39C70.2386 78.0073 70.7146 77.6947 71.2559 77.452C71.8066 77.2 72.3946 77.074 73.0199 77.074C73.5892 77.074 74.0792 77.1393 74.4899 77.27C74.9006 77.4007 75.2366 77.5873 75.4979 77.83C75.7686 78.0633 75.9646 78.3527 76.0859 78.698C76.2166 79.034 76.2819 79.4167 76.2819 79.846Z" fill="#5B5B5B"/>
<path d="M133.5 87V27" stroke="black" stroke-width="3"/>
<path d="M4.5 88.025V28.025" stroke="black" stroke-width="3"/>
<path d="M3 63.5H39" stroke="black" stroke-width="3"/>
<path d="M99 64.5H135" stroke="black" stroke-width="3"/>
<path d="M4.5 93C6.98528 93 9 90.9853 9 88.5C9 86.0147 6.98528 84 4.5 84C2.01472 84 0 86.0147 0 88.5C0 90.9853 2.01472 93 4.5 93Z" fill="black"/>
<path d="M133.5 93C135.985 93 138 90.9853 138 88.5C138 86.0147 135.985 84 133.5 84C131.015 84 129 86.0147 129 88.5C129 90.9853 131.015 93 133.5 93Z" fill="black"/>
<path d="M4 67C5.65685 67 7 65.6569 7 64C7 62.3431 5.65685 61 4 61C2.34315 61 1 62.3431 1 64C1 65.6569 2.34315 67 4 67Z" fill="black"/>
<path d="M134 67C135.657 67 137 65.6569 137 64C137 62.3431 135.657 61 134 61C132.343 61 131 62.3431 131 64C131 65.6569 132.343 67 134 67Z" fill="black"/>
</svg>
