<svg width="164" height="41" viewBox="0 0 164 41" fill="none" xmlns="http://www.w3.org/2000/svg">
<rect x="5.47192" y="39.5074" width="23" height="58" transform="rotate(-90 5.47192 39.5074)" fill="#AFAFAF" stroke="black" stroke-width="2"/>
<line x1="64" y1="28.5" x2="100" y2="28.5" stroke="black" stroke-width="3"/>
<rect x="100" y="40" width="23" height="58" transform="rotate(-90 100 40)" fill="#AFAFAF" stroke="black" stroke-width="2"/>
<line x1="159" y1="28.5" x2="164" y2="28.5" stroke="black" stroke-width="3"/>
<line y1="28.5" x2="5" y2="28.5" stroke="black" stroke-width="3"/>
<path opacity="0.6" d="M28.962 3.186C30.418 3.186 31.5333 3.44733 32.308 3.97C33.0827 4.48333 33.47 5.286 33.47 6.378C33.47 7.05933 33.3113 7.61467 32.994 8.044C32.686 8.464 32.238 8.79533 31.65 9.038C31.846 9.28067 32.0513 9.56067 32.266 9.878C32.4807 10.186 32.6907 10.5127 32.896 10.858C33.1107 11.194 33.316 11.5487 33.512 11.922C33.708 12.286 33.89 12.6453 34.058 13H31.608C31.4307 12.6827 31.2487 12.3607 31.062 12.034C30.8847 11.7073 30.698 11.39 30.502 11.082C30.3153 10.774 30.1287 10.4847 29.942 10.214C29.7553 9.934 29.5687 9.682 29.382 9.458H28.304V13H26.12V3.438C26.596 3.34467 27.086 3.27933 27.59 3.242C28.1033 3.20467 28.5607 3.186 28.962 3.186ZM29.088 5.048C28.9293 5.048 28.7847 5.05267 28.654 5.062C28.5327 5.07133 28.416 5.08067 28.304 5.09V7.722H28.92C29.7413 7.722 30.3293 7.61933 30.684 7.414C31.0387 7.20867 31.216 6.85867 31.216 6.364C31.216 5.888 31.034 5.552 30.67 5.356C30.3153 5.15067 29.788 5.048 29.088 5.048ZM35.3179 5.314C35.5886 5.202 35.8686 5.076 36.1579 4.936C36.4566 4.78667 36.7459 4.628 37.0259 4.46C37.3059 4.28267 37.5719 4.10067 37.8239 3.914C38.0852 3.718 38.3186 3.51267 38.5239 3.298H39.9799V13H37.8939V6.014C37.6139 6.20067 37.3012 6.37333 36.9559 6.532C36.6106 6.68133 36.2746 6.812 35.9479 6.924L35.3179 5.314Z" fill="#5B5B5B"/>
<path opacity="0.6" d="M123.962 3.186C125.418 3.186 126.533 3.44733 127.308 3.97C128.083 4.48333 128.47 5.286 128.47 6.378C128.47 7.05933 128.311 7.61467 127.994 8.044C127.686 8.464 127.238 8.79533 126.65 9.038C126.846 9.28067 127.051 9.56067 127.266 9.878C127.481 10.186 127.691 10.5127 127.896 10.858C128.111 11.194 128.316 11.5487 128.512 11.922C128.708 12.286 128.89 12.6453 129.058 13H126.608C126.431 12.6827 126.249 12.3607 126.062 12.034C125.885 11.7073 125.698 11.39 125.502 11.082C125.315 10.774 125.129 10.4847 124.942 10.214C124.755 9.934 124.569 9.682 124.382 9.458H123.304V13H121.12V3.438C121.596 3.34467 122.086 3.27933 122.59 3.242C123.103 3.20467 123.561 3.186 123.962 3.186ZM124.088 5.048C123.929 5.048 123.785 5.05267 123.654 5.062C123.533 5.07133 123.416 5.08067 123.304 5.09V7.722H123.92C124.741 7.722 125.329 7.61933 125.684 7.414C126.039 7.20867 126.216 6.85867 126.216 6.364C126.216 5.888 126.034 5.552 125.67 5.356C125.315 5.15067 124.788 5.048 124.088 5.048ZM136.282 5.846C136.282 6.20067 136.212 6.54133 136.072 6.868C135.932 7.19467 135.75 7.512 135.526 7.82C135.302 8.11867 135.05 8.408 134.77 8.688C134.49 8.968 134.215 9.234 133.944 9.486C133.804 9.61667 133.65 9.766 133.482 9.934C133.323 10.0927 133.169 10.256 133.02 10.424C132.871 10.592 132.735 10.7507 132.614 10.9C132.502 11.04 132.432 11.1567 132.404 11.25H136.576V13H130.108C130.089 12.8973 130.08 12.7667 130.08 12.608C130.08 12.4493 130.08 12.3373 130.08 12.272C130.08 11.824 130.15 11.4133 130.29 11.04C130.439 10.6667 130.631 10.3213 130.864 10.004C131.097 9.67733 131.359 9.374 131.648 9.094C131.947 8.814 132.241 8.534 132.53 8.254C132.754 8.03933 132.964 7.83867 133.16 7.652C133.356 7.456 133.529 7.26933 133.678 7.092C133.827 6.90533 133.944 6.72333 134.028 6.546C134.112 6.35933 134.154 6.17267 134.154 5.986C134.154 5.57533 134.037 5.286 133.804 5.118C133.571 4.95 133.281 4.866 132.936 4.866C132.684 4.866 132.446 4.908 132.222 4.992C132.007 5.06667 131.807 5.16 131.62 5.272C131.443 5.37467 131.289 5.482 131.158 5.594C131.027 5.69667 130.929 5.78067 130.864 5.846L129.828 4.39C130.239 4.00733 130.715 3.69467 131.256 3.452C131.807 3.2 132.395 3.074 133.02 3.074C133.589 3.074 134.079 3.13933 134.49 3.27C134.901 3.40067 135.237 3.58733 135.498 3.83C135.769 4.06333 135.965 4.35267 136.086 4.698C136.217 5.034 136.282 5.41667 136.282 5.846Z" fill="#5B5B5B"/>
</svg>
