<svg width="164" height="45" viewBox="0 0 164 45" fill="none" xmlns="http://www.w3.org/2000/svg">
<line x1="64" y1="29.5" x2="100" y2="29.5" stroke="black" stroke-width="3"/>
<line x1="159" y1="29.5" x2="164" y2="29.5" stroke="black" stroke-width="3"/>
<line y1="29.5" x2="5" y2="29.5" stroke="black" stroke-width="3"/>
<path opacity="0.6" d="M31.544 13.196C29.9667 13.196 28.7627 12.7573 27.932 11.88C27.1107 11.0027 26.7 9.75667 26.7 8.142C26.7 7.33933 26.826 6.62533 27.078 6C27.33 5.36533 27.6753 4.83333 28.114 4.404C28.5527 3.96533 29.0753 3.634 29.682 3.41C30.2887 3.186 30.9467 3.074 31.656 3.074C32.0667 3.074 32.44 3.10667 32.776 3.172C33.112 3.228 33.406 3.298 33.658 3.382C33.91 3.45667 34.12 3.536 34.288 3.62C34.456 3.704 34.5773 3.76933 34.652 3.816L34.022 5.58C33.7233 5.42133 33.3733 5.286 32.972 5.174C32.58 5.062 32.132 5.006 31.628 5.006C31.292 5.006 30.9607 5.062 30.634 5.174C30.3167 5.286 30.032 5.468 29.78 5.72C29.5373 5.96267 29.3413 6.28 29.192 6.672C29.0427 7.064 28.968 7.54 28.968 8.1C28.968 8.548 29.0147 8.968 29.108 9.36C29.2107 9.74267 29.3693 10.074 29.584 10.354C29.808 10.634 30.0973 10.858 30.452 11.026C30.8067 11.1847 31.236 11.264 31.74 11.264C32.0573 11.264 32.342 11.2453 32.594 11.208C32.846 11.1707 33.07 11.1287 33.266 11.082C33.462 11.026 33.6347 10.9653 33.784 10.9C33.9333 10.8347 34.0687 10.774 34.19 10.718L34.792 12.468C34.484 12.6547 34.05 12.8227 33.49 12.972C32.93 13.1213 32.2813 13.196 31.544 13.196ZM36.0581 5.314C36.3288 5.202 36.6088 5.076 36.8981 4.936C37.1968 4.78667 37.4861 4.628 37.7661 4.46C38.0461 4.28267 38.3121 4.10067 38.5641 3.914C38.8255 3.718 39.0588 3.51267 39.2641 3.298H40.7201V13H38.6341V6.014C38.3541 6.20067 38.0415 6.37333 37.6961 6.532C37.3508 6.68133 37.0148 6.812 36.6881 6.924L36.0581 5.314Z" fill="#5B5B5B"/>
<path opacity="0.6" d="M125.544 13.196C123.967 13.196 122.763 12.7573 121.932 11.88C121.111 11.0027 120.7 9.75667 120.7 8.142C120.7 7.33933 120.826 6.62533 121.078 6C121.33 5.36533 121.675 4.83333 122.114 4.404C122.553 3.96533 123.075 3.634 123.682 3.41C124.289 3.186 124.947 3.074 125.656 3.074C126.067 3.074 126.44 3.10667 126.776 3.172C127.112 3.228 127.406 3.298 127.658 3.382C127.91 3.45667 128.12 3.536 128.288 3.62C128.456 3.704 128.577 3.76933 128.652 3.816L128.022 5.58C127.723 5.42133 127.373 5.286 126.972 5.174C126.58 5.062 126.132 5.006 125.628 5.006C125.292 5.006 124.961 5.062 124.634 5.174C124.317 5.286 124.032 5.468 123.78 5.72C123.537 5.96267 123.341 6.28 123.192 6.672C123.043 7.064 122.968 7.54 122.968 8.1C122.968 8.548 123.015 8.968 123.108 9.36C123.211 9.74267 123.369 10.074 123.584 10.354C123.808 10.634 124.097 10.858 124.452 11.026C124.807 11.1847 125.236 11.264 125.74 11.264C126.057 11.264 126.342 11.2453 126.594 11.208C126.846 11.1707 127.07 11.1287 127.266 11.082C127.462 11.026 127.635 10.9653 127.784 10.9C127.933 10.8347 128.069 10.774 128.19 10.718L128.792 12.468C128.484 12.6547 128.05 12.8227 127.49 12.972C126.93 13.1213 126.281 13.196 125.544 13.196ZM136.022 5.846C136.022 6.20067 135.952 6.54133 135.812 6.868C135.672 7.19467 135.49 7.512 135.266 7.82C135.042 8.11867 134.79 8.408 134.51 8.688C134.23 8.968 133.955 9.234 133.684 9.486C133.544 9.61667 133.39 9.766 133.222 9.934C133.063 10.0927 132.909 10.256 132.76 10.424C132.611 10.592 132.475 10.7507 132.354 10.9C132.242 11.04 132.172 11.1567 132.144 11.25H136.316V13H129.848C129.829 12.8973 129.82 12.7667 129.82 12.608C129.82 12.4493 129.82 12.3373 129.82 12.272C129.82 11.824 129.89 11.4133 130.03 11.04C130.179 10.6667 130.371 10.3213 130.604 10.004C130.837 9.67733 131.099 9.374 131.388 9.094C131.687 8.814 131.981 8.534 132.27 8.254C132.494 8.03933 132.704 7.83867 132.9 7.652C133.096 7.456 133.269 7.26933 133.418 7.092C133.567 6.90533 133.684 6.72333 133.768 6.546C133.852 6.35933 133.894 6.17267 133.894 5.986C133.894 5.57533 133.777 5.286 133.544 5.118C133.311 4.95 133.021 4.866 132.676 4.866C132.424 4.866 132.186 4.908 131.962 4.992C131.747 5.06667 131.547 5.16 131.36 5.272C131.183 5.37467 131.029 5.482 130.898 5.594C130.767 5.69667 130.669 5.78067 130.604 5.846L129.568 4.39C129.979 4.00733 130.455 3.69467 130.996 3.452C131.547 3.2 132.135 3.074 132.76 3.074C133.329 3.074 133.819 3.13933 134.23 3.27C134.641 3.40067 134.977 3.58733 135.238 3.83C135.509 4.06333 135.705 4.35267 135.826 4.698C135.957 5.034 136.022 5.41667 136.022 5.846Z" fill="#5B5B5B"/>
<line x1="120.353" y1="16.5" x2="120.353" y2="43.5" stroke="black" stroke-width="3" stroke-linecap="round"/>
<line x1="96.5" y1="29.5" x2="120.512" y2="29.5" stroke="black" stroke-width="3" stroke-linecap="round"/>
<line x1="136.488" y1="16.5" x2="136.488" y2="43.5" stroke="black" stroke-width="3" stroke-linecap="round"/>
<line x1="136.488" y1="29.5" x2="160.5" y2="29.5" stroke="black" stroke-width="3" stroke-linecap="round"/>
<line x1="26.3526" y1="16.5" x2="26.3526" y2="43.5" stroke="black" stroke-width="3" stroke-linecap="round"/>
<line x1="2.5" y1="29.5" x2="26.5118" y2="29.5" stroke="black" stroke-width="3" stroke-linecap="round"/>
<line x1="42.4882" y1="16.5" x2="42.4882" y2="43.5" stroke="black" stroke-width="3" stroke-linecap="round"/>
<line x1="42.4882" y1="29.5" x2="66.5" y2="29.5" stroke="black" stroke-width="3" stroke-linecap="round"/>
</svg>
